<svg xmlns="http://www.w3.org/2000/svg" viewBox="0 0 2200 900" role="img" aria-label="Stylized Las Vegas night skyline">
  <defs>
    <linearGradient id="sky" x1="0" y1="0" x2="0" y2="1"><stop offset="0" stop-color="#020304"/><stop offset="1" stop-color="#07090b"/></linearGradient>
    <linearGradient id="road" x1="0" y1="0" x2="1" y2="0"><stop offset="0" stop-color="#ef233c"/><stop offset="1" stop-color="#7d0716"/></linearGradient>
    <filter id="glow"><feGaussianBlur stdDeviation="6" result="b"/><feMerge><feMergeNode in="b"/><feMergeNode in="SourceGraphic"/></feMerge></filter>
  </defs>
  <rect width="2200" height="900" fill="url(#sky)"/>
  <path d="M0 560 L150 500 280 545 410 470 560 530 710 455 860 520 1030 455 1210 525 1370 460 1510 525 1690 455 1850 520 2010 470 2200 540 2200 900 0 900Z" fill="#050607"/>
  <g stroke="#7f0b19" stroke-width="4" fill="#0a0c0e" opacity=".95">
    <rect x="70" y="610" width="82" height="145"/><rect x="165" y="575" width="110" height="180"/><rect x="290" y="635" width="75" height="120"/><rect x="385" y="595" width="100" height="160"/>
    <rect x="1710" y="610" width="90" height="145"/><rect x="1810" y="575" width="120" height="180"/><rect x="1945" y="630" width="90" height="125"/><rect x="2050" y="600" width="100" height="155"/>
  </g>
  <g stroke="#ef233c" fill="none" filter="url(#glow)">
    <path d="M0 835 C260 770 430 760 690 705" stroke-width="11"/>
    <path d="M0 865 C260 810 455 800 730 730" stroke-width="4" opacity=".8"/>
    <path d="M230 620 L245 445 L260 620" stroke-width="5"/>
    <path d="M2000 690 a95 95 0 1 0 0.1 0" stroke-width="5"/>
    <line x1="2000" y1="595" x2="2000" y2="785" stroke-width="3"/><line x1="1905" y1="690" x2="2095" y2="690" stroke-width="3"/>
  </g>
  <g fill="#ef233c" opacity=".85"><circle cx="245" cy="442" r="7"/><circle cx="2000" cy="595" r="5"/><circle cx="2095" cy="690" r="5"/><circle cx="1905" cy="690" r="5"/></g>
</svg>